<svg xmlns="http://www.w3.org/2000/svg" xmlns:xlink="http://www.w3.org/1999/xlink" width="400" height="400" viewBox="0, 0, 400,400" version="1.1"><g id="svgg"><path id="path0" d="M173.000 102.674 C 89.735 130.852,30.290 163.798,33.170 180.172 C 36.777 200.678,45.758 216.578,59.784 227.288 C 70.102 235.166,69.798 235.166,95.735 227.221 C 154.609 209.186,255.854 210.412,313.583 229.860 C 332.994 236.399,345.101 229.898,357.766 206.137 C 375.469 172.923,368.314 163.318,304.000 133.962 C 223.969 97.431,203.170 92.464,173.000 102.674 M221.000 162.000 L 240.925 182.000 200.000 182.000 L 159.075 182.000 179.000 162.000 C 189.959 151.000,199.409 142.000,200.000 142.000 C 200.591 142.000,210.041 151.000,221.000 162.000 M151.000 231.931 C 79.049 238.560,65.033 254.931,108.984 281.011 C 177.200 321.490,325.809 299.144,314.060 250.174 C 310.716 236.237,217.482 225.806,151.000 231.931 " stroke="none" fill="#1e345d" fill-rule="evenodd"></path></g></svg>